<svg xmlns="http://www.w3.org/2000/svg" viewBox="0 0 64 64" fill="none">
  <!-- Background circle -->
  <circle cx="32" cy="32" r="32" fill="#4338ca"/>

  <!-- Main dome -->
  <path d="M18 34 Q18 22 32 22 Q46 22 46 34 Z" fill="#ffffff"/>

  <!-- Crescent inside dome -->
  <path d="M28 28 A6 6 0 0 1 36 28 A4 4 0 0 0 28 28 Z" fill="#4338ca"/>

  <!-- Main body / prayer hall -->
  <rect x="18" y="34" width="28" height="12" rx="1" fill="#ffffff"/>

  <!-- Door arch -->
  <path d="M29 46 L29 40 Q32 37 35 40 L35 46 Z" fill="#4338ca"/>

  <!-- Left minaret -->
  <rect x="13" y="28" width="4" height="18" rx="1" fill="#ffffff"/>
  <!-- Left minaret dome -->
  <path d="M13 28 Q15 23 17 28 Z" fill="#ffffff"/>
  <!-- Left minaret top bulb -->
  <circle cx="15" cy="23" r="1.5" fill="#f59e0b"/>

  <!-- Right minaret -->
  <rect x="47" y="28" width="4" height="18" rx="1" fill="#ffffff"/>
  <!-- Right minaret dome -->
  <path d="M47 28 Q49 23 51 28 Z" fill="#ffffff"/>
  <!-- Right minaret top bulb -->
  <circle cx="49" cy="23" r="1.5" fill="#f59e0b"/>

  <!-- Main dome top finial (crescent & star) -->
  <!-- Star on top of main dome -->
  <circle cx="32" cy="19" r="2" fill="#f59e0b"/>
  <!-- Small crescent above main dome -->
  <path d="M30.5 16.5 A2.5 2.5 0 0 1 33.5 16.5 A1.8 1.8 0 0 0 30.5 16.5 Z" fill="#f59e0b"/>

  <!-- Windows on prayer hall -->
  <rect x="21" y="36" width="4" height="5" rx="1" fill="#4338ca" opacity="0.6"/>
  <rect x="39" y="36" width="4" height="5" rx="1" fill="#4338ca" opacity="0.6"/>
</svg>
