<svg width="1600" height="900" viewBox="0 0 1600 900" fill="none" xmlns="http://www.w3.org/2000/svg">
  <defs>
    <linearGradient id="bg" x1="120" y1="80" x2="1480" y2="820" gradientUnits="userSpaceOnUse">
      <stop stop-color="#F4E9D8"/>
      <stop offset="0.45" stop-color="#E7F0EA"/>
      <stop offset="1" stop-color="#D6E4EA"/>
    </linearGradient>
    <linearGradient id="panel" x1="920" y1="170" x2="1390" y2="720" gradientUnits="userSpaceOnUse">
      <stop stop-color="#174A45"/>
      <stop offset="1" stop-color="#0F2F3D"/>
    </linearGradient>
    <linearGradient id="accent" x1="205" y1="540" x2="710" y2="780" gradientUnits="userSpaceOnUse">
      <stop stop-color="#C68A2B"/>
      <stop offset="1" stop-color="#8F5A14"/>
    </linearGradient>
  </defs>
  <rect width="1600" height="900" fill="url(#bg)"/>
  <circle cx="1380" cy="130" r="150" fill="#FFFFFF" fill-opacity="0.45"/>
  <circle cx="180" cy="780" r="180" fill="#FFFFFF" fill-opacity="0.3"/>
  <rect x="870" y="130" width="530" height="620" rx="36" fill="url(#panel)"/>
  <rect x="930" y="220" width="340" height="18" rx="9" fill="#D0E2E0" fill-opacity="0.7"/>
  <rect x="930" y="270" width="280" height="18" rx="9" fill="#D0E2E0" fill-opacity="0.48"/>
  <rect x="930" y="360" width="410" height="110" rx="24" fill="#F8F4EC"/>
  <rect x="930" y="500" width="190" height="160" rx="24" fill="#F0D7A5"/>
  <rect x="1150" y="500" width="190" height="160" rx="24" fill="#E2ECE8"/>
  <rect x="140" y="150" width="580" height="600" rx="36" fill="#FFFFFF" fill-opacity="0.56"/>
  <rect x="205" y="540" width="450" height="130" rx="30" fill="url(#accent)"/>
  <text x="205" y="280" fill="#183540" font-size="62" font-family="Arial, sans-serif" font-weight="700">
    MyImam
  </text>
  <text x="205" y="350" fill="#183540" font-size="34" font-family="Arial, sans-serif" font-weight="600">
    Operasi Kewangan Masjid
  </text>
  <text x="205" y="398" fill="#183540" font-size="34" font-family="Arial, sans-serif" font-weight="600">
    yang kemas, premium, dan diyakini.
  </text>
  <text x="205" y="475" fill="#35515C" font-size="24" font-family="Arial, sans-serif">
    Laporan, kutipan, belanja, dan komunikasi komuniti
  </text>
  <text x="205" y="512" fill="#35515C" font-size="24" font-family="Arial, sans-serif">
    disusun dalam satu pengalaman digital yang profesional.
  </text>
  <text x="245" y="615" fill="#FFFFFF" font-size="26" font-family="Arial, sans-serif" font-weight="700">
    Dashboard real-time
  </text>
  <text x="245" y="650" fill="#FFF3E3" font-size="20" font-family="Arial, sans-serif">
    Multi-cawangan, audit-ready, dan
  </text>
  <text x="245" y="680" fill="#FFF3E3" font-size="20" font-family="Arial, sans-serif">
    mudah disesuaikan melalui CMS Builder.
  </text>
</svg>
